# xmcd
#
# Track frame offsets:
#	150
#	20128
#	34515
#	51228
#	67118
#	80383
#	102620
#	119668
#	136008
#	160338
#	177505
#	198103
#	216123
#	232653
#	252953
#	267768
#	284920
#	303738
#
# Disc length: 4236 seconds
#
# Revision: 1
# Processed by: cddbd v1.5.2PL0 Copyright (c) Steve Scherf et al.
# Submitted via: AudioConverter v4.05 Copyright (c) Dennis Rebentrost
#
DISCID=0d108a12
DTITLE=Motorhead - Orgasmatron and Rock 'N' Roll
DYEAR=1900
DGENRE=Heavy Metal
TTITLE0=Deaf Forever
TTITLE1=Nothing up My Sleeve
TTITLE2=Ain't My Crime
TTITLE3=Claw
TTITLE4=Mean Machine
TTITLE5=Built for Speed
TTITLE6=Ridin' with the Driver
TTITLE7=Doctor Rock
TTITLE8=Orgasmatron
TTITLE9=Rock 'N' Roll
TTITLE10=Eat the Rich
TTITLE11=Blackheart
TTITLE12=Stone Deaf in the USA
TTITLE13=The Wolf
TTITLE14=Traitor
TTITLE15=Dogs
TTITLE16=All for You
TTITLE17=Boogeyman
EXTD=
EXTT0=
EXTT1=
EXTT2=
EXTT3=
EXTT4=
EXTT5=
EXTT6=
EXTT7=
EXTT8=
EXTT9=
EXTT10=
EXTT11=
EXTT12=
EXTT13=
EXTT14=
EXTT15=
EXTT16=
EXTT17=
PLAYORDER=
